<svg width="358" height="144" viewBox="0 0 358 144" fill="none" xmlns="http://www.w3.org/2000/svg">
<foreignObject x="0" y="0" width="358" height="144"><div xmlns="http://www.w3.org/1999/xhtml" style="backdrop-filter:blur(2px);clip-path:url(#bgblur_0_176_14941_clip_path);height:100%;width:100%"></div></foreignObject><g filter="url(#filter0_d_176_14941)" data-figma-bg-blur-radius="4">
<rect x="12" y="20" width="334" height="111.5" rx="4" fill="#31290C" fill-opacity="0.8" shape-rendering="crispEdges"/>
<rect x="13" y="21" width="332" height="109.5" rx="3" stroke="#D4AF37" stroke-width="2" shape-rendering="crispEdges"/>
<rect x="137.52" y="10" width="82.97" height="20" rx="4" fill="#D4AF37"/>
<g filter="url(#filter1_dd_176_14941)">
<rect x="137.52" y="10" width="82.97" height="20" rx="4" fill="white" fill-opacity="0.01" shape-rendering="crispEdges"/>
</g>
<path d="M154.039 14.64C154.855 14.64 155.559 14.888 156.151 15.384L156.439 14.748H156.835L156.955 17.4H156.427C156.027 16.032 155.255 15.348 154.111 15.348C153.695 15.348 153.371 15.45 153.139 15.654C152.907 15.858 152.791 16.136 152.791 16.488C152.791 16.728 152.867 16.942 153.019 17.13C153.171 17.318 153.361 17.48 153.589 17.616C153.817 17.752 154.131 17.92 154.531 18.12C155.107 18.408 155.577 18.674 155.941 18.918C156.305 19.162 156.619 19.486 156.883 19.89C157.147 20.294 157.279 20.792 157.279 21.384C157.279 21.896 157.135 22.358 156.847 22.77C156.559 23.182 156.167 23.508 155.671 23.748C155.175 23.988 154.623 24.108 154.015 24.108C153.639 24.108 153.275 24.06 152.923 23.964C152.571 23.868 152.195 23.716 151.795 23.508L151.375 24H151.003L150.763 20.928L151.267 20.844C151.523 21.748 151.865 22.402 152.293 22.806C152.721 23.21 153.287 23.412 153.991 23.412C154.503 23.412 154.909 23.29 155.209 23.046C155.509 22.802 155.659 22.468 155.659 22.044C155.659 21.804 155.581 21.592 155.425 21.408C155.269 21.224 155.071 21.064 154.831 20.928C154.591 20.792 154.259 20.62 153.835 20.412C153.235 20.132 152.743 19.868 152.359 19.62C151.975 19.372 151.647 19.046 151.375 18.642C151.103 18.238 150.967 17.748 150.967 17.172C150.967 16.692 151.101 16.26 151.369 15.876C151.637 15.492 152.005 15.19 152.473 14.97C152.941 14.75 153.463 14.64 154.039 14.64ZM162.751 23.292V15.42H160.795C160.371 15.964 160.003 16.664 159.691 17.52H159.223L159.667 14.76H167.851L168.295 17.52H167.827C167.675 17.104 167.517 16.724 167.353 16.38C167.189 16.036 166.991 15.716 166.759 15.42H164.803V23.292L166.231 23.556V24H161.311V23.556L162.751 23.292ZM177.199 22.824C177.279 23.016 177.363 23.16 177.451 23.256C177.539 23.352 177.659 23.42 177.811 23.46C177.963 23.5 178.191 23.532 178.495 23.556V24H173.551V23.556C173.999 23.54 174.307 23.502 174.475 23.442C174.643 23.382 174.727 23.272 174.727 23.112C174.727 22.984 174.691 22.824 174.619 22.632L174.139 21.336H171.439L171.091 22.248C171.003 22.488 170.959 22.676 170.959 22.812C170.959 23.012 171.061 23.168 171.265 23.28C171.469 23.392 171.819 23.484 172.315 23.556V24H168.595V23.556C168.987 23.492 169.275 23.42 169.459 23.34C169.643 23.26 169.789 23.142 169.897 22.986C170.005 22.83 170.127 22.576 170.263 22.224L172.531 16.44L171.979 15.204L173.767 14.52L177.199 22.824ZM173.887 20.652L172.843 17.808H172.795L171.703 20.652H173.887ZM182.263 23.292V15.42H180.307C179.883 15.964 179.515 16.664 179.203 17.52H178.735L179.179 14.76H187.363L187.807 17.52H187.339C187.187 17.104 187.029 16.724 186.865 16.38C186.701 16.036 186.503 15.716 186.271 15.42H184.315V23.292L185.743 23.556V24H180.823V23.556L182.263 23.292ZM192.559 20.796C192.559 21.612 192.741 22.246 193.105 22.698C193.469 23.15 193.983 23.376 194.647 23.376C195.383 23.376 195.935 23.124 196.303 22.62C196.487 22.364 196.621 22.024 196.705 21.6C196.789 21.176 196.831 20.616 196.831 19.92V15.432L195.775 15.204V14.76H198.727V15.204L197.659 15.432V20.604C197.659 21.524 197.475 22.272 197.107 22.848C196.555 23.696 195.591 24.12 194.215 24.12C193.487 24.12 192.847 24.01 192.295 23.79C191.743 23.57 191.307 23.252 190.987 22.836C190.803 22.604 190.671 22.33 190.591 22.014C190.511 21.698 190.471 21.292 190.471 20.796V15.432L189.451 15.204V14.76H193.615V15.204L192.559 15.432V20.796ZM204.031 14.64C204.847 14.64 205.551 14.888 206.143 15.384L206.431 14.748H206.827L206.947 17.4H206.419C206.019 16.032 205.247 15.348 204.103 15.348C203.687 15.348 203.363 15.45 203.131 15.654C202.899 15.858 202.783 16.136 202.783 16.488C202.783 16.728 202.859 16.942 203.011 17.13C203.163 17.318 203.353 17.48 203.581 17.616C203.809 17.752 204.123 17.92 204.523 18.12C205.099 18.408 205.569 18.674 205.933 18.918C206.297 19.162 206.611 19.486 206.875 19.89C207.139 20.294 207.271 20.792 207.271 21.384C207.271 21.896 207.127 22.358 206.839 22.77C206.551 23.182 206.159 23.508 205.663 23.748C205.167 23.988 204.615 24.108 204.007 24.108C203.631 24.108 203.267 24.06 202.915 23.964C202.563 23.868 202.187 23.716 201.787 23.508L201.367 24H200.995L200.755 20.928L201.259 20.844C201.515 21.748 201.857 22.402 202.285 22.806C202.713 23.21 203.279 23.412 203.983 23.412C204.495 23.412 204.901 23.29 205.201 23.046C205.501 22.802 205.651 22.468 205.651 22.044C205.651 21.804 205.573 21.592 205.417 21.408C205.261 21.224 205.063 21.064 204.823 20.928C204.583 20.792 204.251 20.62 203.827 20.412C203.227 20.132 202.735 19.868 202.351 19.62C201.967 19.372 201.639 19.046 201.367 18.642C201.095 18.238 200.959 17.748 200.959 17.172C200.959 16.692 201.093 16.26 201.361 15.876C201.629 15.492 201.997 15.19 202.465 14.97C202.933 14.75 203.455 14.64 204.031 14.64Z" fill="#EADDB1"/>
<rect x="10.5" y="18.5" width="337" height="115" stroke="#D4AF37" stroke-opacity="0.3"/>
</g>
<defs>
<filter id="filter0_d_176_14941" x="0" y="0" width="358" height="144" filterUnits="userSpaceOnUse" color-interpolation-filters="sRGB">
<feFlood flood-opacity="0" result="BackgroundImageFix"/>
<feColorMatrix in="SourceAlpha" type="matrix" values="0 0 0 0 0 0 0 0 0 0 0 0 0 0 0 0 0 0 127 0" result="hardAlpha"/>
<feOffset/>
<feGaussianBlur stdDeviation="5"/>
<feComposite in2="hardAlpha" operator="out"/>
<feColorMatrix type="matrix" values="0 0 0 0 0.831373 0 0 0 0 0.686275 0 0 0 0 0.215686 0 0 0 0.5 0"/>
<feBlend mode="normal" in2="BackgroundImageFix" result="effect1_dropShadow_176_14941"/>
<feBlend mode="normal" in="SourceGraphic" in2="effect1_dropShadow_176_14941" result="shape"/>
</filter>
<clipPath id="bgblur_0_176_14941_clip_path" transform="translate(0 0)"><rect x="12" y="20" width="334" height="111.5" rx="4"/>
</clipPath><filter id="filter1_dd_176_14941" x="132.52" y="9" width="92.97" height="30" filterUnits="userSpaceOnUse" color-interpolation-filters="sRGB">
<feFlood flood-opacity="0" result="BackgroundImageFix"/>
<feColorMatrix in="SourceAlpha" type="matrix" values="0 0 0 0 0 0 0 0 0 0 0 0 0 0 0 0 0 0 127 0" result="hardAlpha"/>
<feMorphology radius="2" operator="erode" in="SourceAlpha" result="effect1_dropShadow_176_14941"/>
<feOffset dy="2"/>
<feGaussianBlur stdDeviation="2"/>
<feComposite in2="hardAlpha" operator="out"/>
<feColorMatrix type="matrix" values="0 0 0 0 0 0 0 0 0 0 0 0 0 0 0 0 0 0 0.1 0"/>
<feBlend mode="normal" in2="BackgroundImageFix" result="effect1_dropShadow_176_14941"/>
<feColorMatrix in="SourceAlpha" type="matrix" values="0 0 0 0 0 0 0 0 0 0 0 0 0 0 0 0 0 0 127 0" result="hardAlpha"/>
<feMorphology radius="1" operator="erode" in="SourceAlpha" result="effect2_dropShadow_176_14941"/>
<feOffset dy="4"/>
<feGaussianBlur stdDeviation="3"/>
<feComposite in2="hardAlpha" operator="out"/>
<feColorMatrix type="matrix" values="0 0 0 0 0 0 0 0 0 0 0 0 0 0 0 0 0 0 0.1 0"/>
<feBlend mode="normal" in2="effect1_dropShadow_176_14941" result="effect2_dropShadow_176_14941"/>
<feBlend mode="normal" in="SourceGraphic" in2="effect2_dropShadow_176_14941" result="shape"/>
</filter>
</defs>
</svg>
